<mxfile host="65bd71144e" scale="1.5" border="0">
    <diagram id="XZ25W9rnE0sjXCleeGpF" name="Page-1">
        <mxGraphModel dx="887" dy="754" grid="1" gridSize="10" guides="1" tooltips="1" connect="1" arrows="1" fold="1" page="1" pageScale="1" pageWidth="583" pageHeight="827" math="0" shadow="0">
            <root>
                <mxCell id="0"/>
                <mxCell id="1" parent="0"/>
                <mxCell id="47" style="edgeStyle=none;html=1;exitX=0;exitY=1;exitDx=0;exitDy=0;entryX=0.5;entryY=0;entryDx=0;entryDy=0;endArrow=none;endFill=0;strokeWidth=2;fontSize=16;fontFamily=Courier New;" parent="1" source="49" target="52" edge="1">
                    <mxGeometry relative="1" as="geometry"/>
                </mxCell>
                <mxCell id="48" style="edgeStyle=none;html=1;exitX=1;exitY=1;exitDx=0;exitDy=0;entryX=0.5;entryY=0;entryDx=0;entryDy=0;endArrow=none;endFill=0;strokeWidth=2;fontSize=16;fontFamily=Courier New;" parent="1" source="49" target="55" edge="1">
                    <mxGeometry relative="1" as="geometry"/>
                </mxCell>
                <mxCell id="49" value="NAA" style="ellipse;whiteSpace=wrap;html=1;strokeWidth=2;fontSize=16;fillColor=none;fontFamily=Courier New;strokeColor=none;" parent="1" vertex="1">
                    <mxGeometry x="-439" y="40" width="40" height="40" as="geometry"/>
                </mxCell>
                <mxCell id="50" style="edgeStyle=none;html=1;exitX=1;exitY=1;exitDx=0;exitDy=0;entryX=0.5;entryY=0;entryDx=0;entryDy=0;endArrow=none;endFill=0;strokeWidth=2;fontSize=16;fontFamily=Courier New;" parent="1" source="52" edge="1">
                    <mxGeometry relative="1" as="geometry">
                        <mxPoint x="-449" y="160" as="targetPoint"/>
                    </mxGeometry>
                </mxCell>
                <mxCell id="51" style="edgeStyle=none;html=1;exitX=0;exitY=1;exitDx=0;exitDy=0;entryX=0.5;entryY=0;entryDx=0;entryDy=0;endArrow=none;endFill=0;strokeWidth=2;fontSize=16;fontFamily=Courier New;" parent="1" source="52" edge="1">
                    <mxGeometry relative="1" as="geometry">
                        <mxPoint x="-509" y="160" as="targetPoint"/>
                    </mxGeometry>
                </mxCell>
                <mxCell id="52" value="GNA" style="ellipse;whiteSpace=wrap;html=1;strokeWidth=2;fontSize=16;fontFamily=Courier New;strokeColor=none;fillColor=none;" parent="1" vertex="1">
                    <mxGeometry x="-499" y="100" width="40" height="40" as="geometry"/>
                </mxCell>
                <mxCell id="53" style="edgeStyle=none;html=1;exitX=0;exitY=1;exitDx=0;exitDy=0;entryX=0.5;entryY=0;entryDx=0;entryDy=0;endArrow=none;endFill=0;strokeWidth=2;fontSize=16;fontFamily=Courier New;" parent="1" source="55" edge="1">
                    <mxGeometry relative="1" as="geometry">
                        <mxPoint x="-389" y="160" as="targetPoint"/>
                    </mxGeometry>
                </mxCell>
                <mxCell id="54" style="edgeStyle=none;html=1;exitX=1;exitY=1;exitDx=0;exitDy=0;entryX=0.5;entryY=0;entryDx=0;entryDy=0;endArrow=none;endFill=0;strokeWidth=2;fontSize=16;fontFamily=Courier New;" parent="1" source="55" edge="1">
                    <mxGeometry relative="1" as="geometry">
                        <mxPoint x="-329" y="160" as="targetPoint"/>
                    </mxGeometry>
                </mxCell>
                <mxCell id="55" value="TNA" style="ellipse;whiteSpace=wrap;html=1;strokeWidth=2;fontSize=16;fontFamily=Courier New;strokeColor=none;fillColor=none;" parent="1" vertex="1">
                    <mxGeometry x="-379" y="100" width="40" height="40" as="geometry"/>
                </mxCell>
                <mxCell id="95" style="edgeStyle=none;html=1;exitX=1;exitY=1;exitDx=0;exitDy=0;entryX=0.5;entryY=0;entryDx=0;entryDy=0;endArrow=none;endFill=0;strokeWidth=2;fontSize=16;fontFamily=Courier New;" parent="1" source="97" edge="1">
                    <mxGeometry relative="1" as="geometry">
                        <mxPoint x="-419" y="220" as="targetPoint"/>
                    </mxGeometry>
                </mxCell>
                <mxCell id="96" style="edgeStyle=none;html=1;exitX=0;exitY=1;exitDx=0;exitDy=0;entryX=0.5;entryY=0;entryDx=0;entryDy=0;endArrow=none;endFill=0;strokeWidth=2;fontSize=16;fontFamily=Courier New;" parent="1" source="97" edge="1">
                    <mxGeometry relative="1" as="geometry">
                        <mxPoint x="-479" y="220" as="targetPoint"/>
                    </mxGeometry>
                </mxCell>
                <mxCell id="97" value="JTN" style="ellipse;whiteSpace=wrap;html=1;strokeWidth=2;fontSize=16;fontFamily=Courier New;strokeColor=none;fillColor=none;" parent="1" vertex="1">
                    <mxGeometry x="-469" y="160" width="40" height="40" as="geometry"/>
                </mxCell>
                <mxCell id="98" value="..." style="ellipse;whiteSpace=wrap;html=1;strokeWidth=2;fontSize=16;verticalAlign=top;fontFamily=Courier New;strokeColor=none;fillColor=none;" parent="1" vertex="1">
                    <mxGeometry x="-530" y="160" width="40" height="40" as="geometry"/>
                </mxCell>
                <mxCell id="99" value="..." style="ellipse;whiteSpace=wrap;html=1;strokeWidth=2;fontSize=16;verticalAlign=top;fontFamily=Courier New;strokeColor=none;fillColor=none;" parent="1" vertex="1">
                    <mxGeometry x="-409" y="160" width="40" height="40" as="geometry"/>
                </mxCell>
                <mxCell id="100" value="..." style="ellipse;whiteSpace=wrap;html=1;strokeWidth=2;fontSize=16;verticalAlign=top;fontFamily=Courier New;strokeColor=none;fillColor=none;" parent="1" vertex="1">
                    <mxGeometry x="-349" y="160" width="40" height="40" as="geometry"/>
                </mxCell>
                <mxCell id="101" value="..." style="ellipse;whiteSpace=wrap;html=1;strokeWidth=2;fontSize=16;verticalAlign=top;fontFamily=Courier New;strokeColor=none;fillColor=none;" parent="1" vertex="1">
                    <mxGeometry x="-499" y="220" width="40" height="40" as="geometry"/>
                </mxCell>
                <mxCell id="102" value="..." style="ellipse;whiteSpace=wrap;html=1;strokeWidth=2;fontSize=16;verticalAlign=top;fontFamily=Courier New;strokeColor=none;fillColor=none;" parent="1" vertex="1">
                    <mxGeometry x="-439" y="220" width="40" height="40" as="geometry"/>
                </mxCell>
            </root>
        </mxGraphModel>
    </diagram>
</mxfile>